HIERARCHY
ROOT newVegas:Hips
{
	OFFSET 0.000000 96.479958 0.000000
	CHANNELS 6 Xposition Yposition Zposition Xrotation Yrotation Zrotation
	JOINT newVegas:Pelvis
	{
		OFFSET 0.000000 0.000000 0.000000
		CHANNELS 3 Xrotation Yrotation Zrotation
		JOINT newVegas:LeftUpLeg
		{
			OFFSET 18.735201 -5.666702 -4.541200
			CHANNELS 3 Xrotation Yrotation Zrotation
			JOINT newVegas:LeftLeg
			{
				OFFSET -0.021200 -31.938179 0.493100
				CHANNELS 3 Xrotation Yrotation Zrotation
				JOINT newVegas:LeftFoot
				{
					OFFSET 0.021200 -31.938179 -4.336299
					CHANNELS 3 Xrotation Yrotation Zrotation
					JOINT newVegas:LeftToeBase
					{
						OFFSET 0.943001 -26.722000 15.023500
						CHANNELS 3 Xrotation Yrotation Zrotation
						End Site
						{
							OFFSET 0.000000 30.670183 0.000000
						}
					}
				}
				JOINT newVegas:Left_PantLeg
				{
					OFFSET 0.663870 -9.044666 -1.108900
					CHANNELS 3 Xrotation Yrotation Zrotation
					End Site
					{
						OFFSET 1.415995 20.635357 0.000000
					}
				}
			}
		}
		JOINT newVegas:RightUpLeg
		{
			OFFSET -18.735201 -5.666702 -4.541200
			CHANNELS 3 Xrotation Yrotation Zrotation
			JOINT newVegas:RightLeg
			{
				OFFSET 0.018946 -31.938133 0.493100
				CHANNELS 3 Xrotation Yrotation Zrotation
				JOINT newVegas:RightFoot
				{
					OFFSET -0.018946 -31.938126 -4.336299
					CHANNELS 3 Xrotation Yrotation Zrotation
					JOINT newVegas:RightToeBase
					{
						OFFSET -0.943001 -26.722004 15.023500
						CHANNELS 3 Xrotation Yrotation Zrotation
						End Site
						{
							OFFSET 0.000000 30.670187 0.000000
						}
					}
				}
				JOINT newVegas:Right_PantLeg
				{
					OFFSET -0.661674 -9.044716 -1.108900
					CHANNELS 3 Xrotation Yrotation Zrotation
					End Site
					{
						OFFSET -1.415958 20.635269 0.000000
					}
				}
			}
		}
	}
	JOINT newVegas:Spine
	{
		OFFSET 0.000000 10.199997 -0.299500
		CHANNELS 3 Xrotation Yrotation Zrotation
		JOINT newVegas:Spine1
		{
			OFFSET 0.000000 11.900002 -1.516600
			CHANNELS 3 Xrotation Yrotation Zrotation
			JOINT newVegas:Spine2
			{
				OFFSET 0.000000 13.600006 -2.842500
				CHANNELS 3 Xrotation Yrotation Zrotation
				JOINT newVegas:Neck
				{
					OFFSET 0.000000 9.624100 -2.890100
					CHANNELS 3 Xrotation Yrotation Zrotation
					JOINT newVegas:Head
					{
						OFFSET 0.000000 14.068802 -1.351900
						CHANNELS 3 Xrotation Yrotation Zrotation
						JOINT newVegas:Hair_Back
						{
							OFFSET 0.000000 3.231903 -17.524799
							CHANNELS 3 Xrotation Yrotation Zrotation
							End Site
							{
								OFFSET 0.000000 19.849884 0.000000
							}
						}
						JOINT newVegas:Hair_Front
						{
							OFFSET 0.000000 31.260406 4.573800
							CHANNELS 3 Xrotation Yrotation Zrotation
							JOINT newVegas:Hair_Front1
							{
								OFFSET 0.000000 2.284103 11.993300
								CHANNELS 3 Xrotation Yrotation Zrotation
								JOINT newVegas:Hair_Front2
								{
									OFFSET 0.000000 2.284103 11.993300
									CHANNELS 3 Xrotation Yrotation Zrotation
									End Site
									{
										OFFSET 0.000000 12.208862 0.000000
									}
								}
							}
						}
						JOINT newVegas:Jowel
						{
							OFFSET 0.000000 -7.458206 6.864100
							CHANNELS 3 Xrotation Yrotation Zrotation
							End Site
							{
								OFFSET 0.000000 19.849884 0.000000
							}
						}
					}
				}
				JOINT newVegas:LeftShoulder
				{
					OFFSET 15.263000 10.923401 -0.547700
					CHANNELS 3 Xrotation Yrotation Zrotation
					JOINT newVegas:LeftArm
					{
						OFFSET 25.438599 -2.830597 -13.032500
						CHANNELS 3 Xrotation Yrotation Zrotation
						JOINT newVegas:LeftForeArm
						{
							OFFSET 29.960503 0.000000 0.000000
							CHANNELS 3 Xrotation Yrotation Zrotation
							JOINT newVegas:LeftHand
							{
								OFFSET 27.849251 0.000000 0.000000
								CHANNELS 3 Xrotation Yrotation Zrotation
								JOINT newVegas:LeftHandThumb1
								{
									OFFSET 4.487587 -3.305161 6.305391
									CHANNELS 3 Xrotation Yrotation Zrotation
									JOINT newVegas:LeftHandThumb2
									{
										OFFSET 5.480453 -3.164139 3.164143
										CHANNELS 3 Xrotation Yrotation Zrotation
										JOINT newVegas:LeftHandThumb3
										{
											OFFSET 5.159721 -2.978973 2.978967
											CHANNELS 3 Xrotation Yrotation Zrotation
											End Site
											{
												OFFSET 2.494507 5.926697 1.738678
											}
										}
									}
								}
								JOINT newVegas:LeftHandIndex1
								{
									OFFSET 18.578728 -0.527832 5.208049
									CHANNELS 3 Xrotation Yrotation Zrotation
									JOINT newVegas:LeftHandIndex2
									{
										OFFSET 3.192009 0.000000 0.000000
										CHANNELS 3 Xrotation Yrotation Zrotation
										JOINT newVegas:LeftHandIndex3
										{
											OFFSET 3.835129 0.000000 0.000000
											CHANNELS 3 Xrotation Yrotation Zrotation
											End Site
											{
												OFFSET -0.034599 3.816971 0.371180
											}
										}
									}
								}
								JOINT newVegas:LeftHandMiddle1
								{
									OFFSET 18.476105 0.000000 0.000000
									CHANNELS 3 Xrotation Yrotation Zrotation
									JOINT newVegas:LeftHandMiddle2
									{
										OFFSET 3.324875 0.000000 0.000000
										CHANNELS 3 Xrotation Yrotation Zrotation
										JOINT newVegas:LeftHandMiddle3
										{
											OFFSET 4.596550 0.000000 0.000000
											CHANNELS 3 Xrotation Yrotation Zrotation
											End Site
											{
												OFFSET 0.057701 4.578827 0.399218
											}
										}
									}
								}
								JOINT newVegas:LeftHandRing1
								{
									OFFSET 17.732719 0.121887 -4.201567
									CHANNELS 3 Xrotation Yrotation Zrotation
									JOINT newVegas:LeftHandRing2
									{
										OFFSET 2.733170 0.000000 0.000000
										CHANNELS 3 Xrotation Yrotation Zrotation
										JOINT newVegas:LeftHandRing3
										{
											OFFSET 3.178268 0.000000 0.000000
											CHANNELS 3 Xrotation Yrotation Zrotation
											End Site
											{
												OFFSET 0.119102 3.170624 0.185394
											}
										}
									}
								}
								JOINT newVegas:LeftHandPinky1
								{
									OFFSET 15.989624 -0.606689 -7.535461
									CHANNELS 3 Xrotation Yrotation Zrotation
									JOINT newVegas:LeftHandPinky2
									{
										OFFSET 2.538986 0.000000 0.000000
										CHANNELS 3 Xrotation Yrotation Zrotation
										JOINT newVegas:LeftHandPinky3
										{
											OFFSET 2.593102 0.000000 0.000000
											CHANNELS 3 Xrotation Yrotation Zrotation
											End Site
											{
												OFFSET -0.150902 2.584198 0.152708
											}
										}
									}
								}
							}
							JOINT newVegas:Left_Sleeve
							{
								OFFSET 0.267448 -0.649796 0.577675
								CHANNELS 3 Xrotation Yrotation Zrotation
								End Site
								{
									OFFSET 0.000000 15.991241 0.000000
								}
							}
							JOINT newVegas:Left_CapeC
							{
								OFFSET 15.715958 -8.608795 -6.935905
								CHANNELS 3 Xrotation Yrotation Zrotation
								JOINT newVegas:Left_CapeC1
								{
									OFFSET 0.000000 -8.688499 0.000000
									CHANNELS 3 Xrotation Yrotation Zrotation
									End Site
									{
										OFFSET 0.000000 8.688499 0.000000
									}
								}
							}
						}
						JOINT newVegas:Left_CapeB
						{
							OFFSET 26.118385 -8.608795 -7.079235
							CHANNELS 3 Xrotation Yrotation Zrotation
							JOINT newVegas:Left_CapeB1
							{
								OFFSET 0.000000 -8.688499 0.000000
								CHANNELS 3 Xrotation Yrotation Zrotation
								End Site
								{
									OFFSET 0.000000 8.688499 0.000000
								}
							}
						}
						JOINT newVegas:Left_CapeA
						{
							OFFSET 5.115639 -8.608795 -10.395809
							CHANNELS 3 Xrotation Yrotation Zrotation
							JOINT newVegas:Left_CapeA1
							{
								OFFSET 0.000000 -8.688499 0.000000
								CHANNELS 3 Xrotation Yrotation Zrotation
								End Site
								{
									OFFSET 0.000000 8.688499 0.000000
								}
							}
						}
					}
				}
				JOINT newVegas:RightShoulder
				{
					OFFSET -15.263000 10.923401 -0.547700
					CHANNELS 3 Xrotation Yrotation Zrotation
					JOINT newVegas:RightArm
					{
						OFFSET -25.438599 -2.830597 -13.032500
						CHANNELS 3 Xrotation Yrotation Zrotation
						JOINT newVegas:RightForeArm
						{
							OFFSET -29.960503 0.000000 0.000000
							CHANNELS 3 Xrotation Yrotation Zrotation
							JOINT newVegas:RightHand
							{
								OFFSET -27.849251 0.000000 0.000000
								CHANNELS 3 Xrotation Yrotation Zrotation
								JOINT newVegas:RightHandThumb1
								{
									OFFSET -4.487587 -3.305161 6.305391
									CHANNELS 3 Xrotation Yrotation Zrotation
									JOINT newVegas:RightHandThumb2
									{
										OFFSET -5.480453 -3.164139 3.164143
										CHANNELS 3 Xrotation Yrotation Zrotation
										JOINT newVegas:RightHandThumb3
										{
											OFFSET -5.159721 -2.978973 2.978967
											CHANNELS 3 Xrotation Yrotation Zrotation
											End Site
											{
												OFFSET -2.494507 5.926697 1.738678
											}
										}
									}
								}
								JOINT newVegas:RightHandIndex1
								{
									OFFSET -18.578728 -0.527832 5.208049
									CHANNELS 3 Xrotation Yrotation Zrotation
									JOINT newVegas:RightHandIndex2
									{
										OFFSET -3.192009 0.000000 0.000000
										CHANNELS 3 Xrotation Yrotation Zrotation
										JOINT newVegas:RightHandIndex3
										{
											OFFSET -3.835129 0.000000 0.000000
											CHANNELS 3 Xrotation Yrotation Zrotation
											End Site
											{
												OFFSET 0.034599 3.816971 0.371180
											}
										}
									}
								}
								JOINT newVegas:RightHandMiddle1
								{
									OFFSET -18.476105 0.000000 0.000000
									CHANNELS 3 Xrotation Yrotation Zrotation
									JOINT newVegas:RightHandMiddle2
									{
										OFFSET -3.324875 0.000000 0.000000
										CHANNELS 3 Xrotation Yrotation Zrotation
										JOINT newVegas:RightHandMiddle3
										{
											OFFSET -4.596550 0.000000 0.000000
											CHANNELS 3 Xrotation Yrotation Zrotation
											End Site
											{
												OFFSET -0.057701 4.578827 0.399218
											}
										}
									}
								}
								JOINT newVegas:RightHandRing1
								{
									OFFSET -17.732719 0.121887 -4.201567
									CHANNELS 3 Xrotation Yrotation Zrotation
									JOINT newVegas:RightHandRing2
									{
										OFFSET -2.733170 0.000000 0.000000
										CHANNELS 3 Xrotation Yrotation Zrotation
										JOINT newVegas:RightHandRing3
										{
											OFFSET -3.178268 0.000000 0.000000
											CHANNELS 3 Xrotation Yrotation Zrotation
											End Site
											{
												OFFSET -0.119102 3.170624 0.185394
											}
										}
									}
								}
								JOINT newVegas:RightHandPinky1
								{
									OFFSET -15.989624 -0.606689 -7.535461
									CHANNELS 3 Xrotation Yrotation Zrotation
									JOINT newVegas:RightHandPinky2
									{
										OFFSET -2.538986 0.000000 0.000000
										CHANNELS 3 Xrotation Yrotation Zrotation
										JOINT newVegas:RightHandPinky3
										{
											OFFSET -2.593102 0.000000 0.000000
											CHANNELS 3 Xrotation Yrotation Zrotation
											End Site
											{
												OFFSET 0.150902 2.584198 0.152708
											}
										}
									}
								}
							}
							JOINT newVegas:Right_CapeC
							{
								OFFSET -15.715958 -8.608795 -6.935905
								CHANNELS 3 Xrotation Yrotation Zrotation
								JOINT newVegas:Right_CapeC1
								{
									OFFSET 0.000000 -8.688499 0.000000
									CHANNELS 3 Xrotation Yrotation Zrotation
									End Site
									{
										OFFSET 0.000000 8.688499 0.000000
									}
								}
							}
							JOINT newVegas:Right_Sleeve
							{
								OFFSET -0.267448 -0.649994 0.577675
								CHANNELS 3 Xrotation Yrotation Zrotation
								End Site
								{
									OFFSET 0.000000 15.991302 0.000000
								}
							}
						}
						JOINT newVegas:Right_CapeA
						{
							OFFSET -5.115540 -8.608795 -10.395824
							CHANNELS 3 Xrotation Yrotation Zrotation
							JOINT newVegas:Right_CapeA1
							{
								OFFSET 0.000000 -8.688499 0.000000
								CHANNELS 3 Xrotation Yrotation Zrotation
								End Site
								{
									OFFSET 0.000000 8.688499 0.000000
								}
							}
						}
						JOINT newVegas:Right_CapeB
						{
							OFFSET -26.118187 -8.608795 -7.079266
							CHANNELS 3 Xrotation Yrotation Zrotation
							JOINT newVegas:Right_CapeB1
							{
								OFFSET 0.000000 -8.688499 0.000000
								CHANNELS 3 Xrotation Yrotation Zrotation
								End Site
								{
									OFFSET 0.000000 8.688499 0.000000
								}
							}
						}
					}
				}
				JOINT newVegas:Left_Collar
				{
					OFFSET 18.625099 8.655502 8.828100
					CHANNELS 3 Xrotation Yrotation Zrotation
					JOINT newVegas:Left_Collar1
					{
						OFFSET 14.783401 10.540405 -1.259500
						CHANNELS 3 Xrotation Yrotation Zrotation
						End Site
						{
							OFFSET 0.000000 18.199875 0.000000
						}
					}
				}
				JOINT newVegas:Collar_Back
				{
					OFFSET 0.000000 15.630707 -20.132601
					CHANNELS 3 Xrotation Yrotation Zrotation
					End Site
					{
						OFFSET 0.000000 22.523010 0.000000
					}
				}
				JOINT newVegas:Left_Peck
				{
					OFFSET 17.239599 -5.132599 25.482599
					CHANNELS 3 Xrotation Yrotation Zrotation
					End Site
					{
						OFFSET 0.000000 22.523010 0.000000
					}
				}
				JOINT newVegas:Right_Peck
				{
					OFFSET -17.239599 -5.132202 25.482599
					CHANNELS 3 Xrotation Yrotation Zrotation
					End Site
					{
						OFFSET 0.000000 22.523010 0.000000
					}
				}
				JOINT newVegas:Right_Collar
				{
					OFFSET -18.625099 8.655792 8.828100
					CHANNELS 3 Xrotation Yrotation Zrotation
					JOINT newVegas:Right_Collar1
					{
						OFFSET -14.783401 10.539993 -1.259500
						CHANNELS 3 Xrotation Yrotation Zrotation
						End Site
						{
							OFFSET 0.000000 18.199631 0.000000
						}
					}
				}
			}
		}
		JOINT newVegas:Belly
		{
			OFFSET 0.000000 -6.540398 9.014299
			CHANNELS 3 Xrotation Yrotation Zrotation
			End Site
			{
				OFFSET 0.000000 11.566666 0.000000
			}
		}
	}
	JOINT newVegas:ElvisFacialAnim_Joint
	{
		OFFSET 1.000000 -95.330101 -8.825800
		CHANNELS 3 Xrotation Yrotation Zrotation
		End Site
		{
			OFFSET 0.000000 35.315800 0.000000
		}
	}
}
MOTION
Frames: 4
Frame Time: 0.033333
-0.228777 87.774971 100.907913 7.951695 -26.856871 -1.074961 -0.000000 -0.000001 -0.000000 -27.545142 9.525464 0.073891 56.779038 7.588279 1.076494 -28.796262 8.119715 1.057030 0.000001 -0.000000 0.000000 0.000001 -0.000000 -0.000000 -9.234712 -19.564515 -4.782413 30.949042 -6.950942 -6.406519 -15.224738 -29.990766 -8.470797 0.000000 -0.000000 0.000000 -0.000002 0.000002 -0.000002 8.411960 8.230386 -2.404111 4.392255 1.133374 -1.963511 4.526664 1.107756 -1.947609 3.132401 1.318991 -3.163273 3.132390 1.318996 -3.163265 -0.000001 -0.000001 0.000001 3.132442 1.319012 -3.163279 3.132319 1.318942 -3.163261 -0.000001 0.000001 -0.000000 -0.000001 -0.000001 0.000001 0.742175 0.126043 -5.072342 3.672959 3.828315 -64.246303 0.000001 -60.558014 0.000003 12.257515 -2.197226 -6.642826 -1.003818 17.479675 8.867467 1.544656 2.723079 -0.789283 0.000001 0.000000 -0.000003 0.044277 -9.664081 -0.454645 0.300440 2.015542 -16.954696 -0.000004 0.000000 0.000000 -0.335393 -8.828060 -2.817513 0.434574 2.411727 -20.426261 0.000003 -0.000002 0.000001 -0.721782 -8.224332 -5.502137 0.678914 2.986186 -25.611514 -0.000003 0.000003 -0.000000 -0.508936 -4.040214 -6.955036 0.975756 -0.543148 -31.079331 -0.000001 -0.000002 0.000001 0.000000 0.000002 -0.000000 0.000000 0.000002 -0.000000 -0.000000 0.000002 -0.000000 0.000001 0.000001 0.000001 0.000001 0.000000 0.000001 0.000001 0.000001 0.000001 0.000001 -0.000000 0.000001 -4.394323 13.491034 -12.355501 17.698400 32.307765 72.560638 0.000036 76.605476 -0.000050 15.195175 4.380893 12.909793 6.470718 -16.280784 -5.320662 20.728518 -3.312271 12.965527 0.000000 0.000001 -0.000000 3.756398 -6.191134 56.407240 6.398022 -6.926516 85.447087 -0.000000 0.000001 -0.000004 4.273539 -6.485703 59.249384 6.054695 -6.890810 82.593421 -0.000001 0.000000 0.000002 5.016812 -6.877787 63.214876 5.516721 -6.799849 78.082026 0.000002 -0.000001 -0.000000 5.718829 -7.203797 66.834979 5.044534 -6.683563 74.061578 0.000003 0.000002 -0.000000 -0.000002 0.000001 0.000001 -0.000004 0.000000 -0.000002 -0.000002 0.000001 -0.000000 0.000002 0.000000 0.000001 0.000002 0.000001 0.000002 0.000002 0.000000 0.000001 0.000002 0.000001 0.000002 -0.000001 -0.000001 -0.000000 -0.000001 -0.000001 -0.000000 -0.000001 -0.000001 -0.000000 -0.000001 -0.000001 -0.000000 -0.000001 -0.000001 -0.000000 -0.000001 -0.000001 -0.000000 -0.000001 -0.000001 -0.000000 -0.000002 0.000003 -0.000000 -0.000000 -0.000001 -0.000000 
-0.348146 88.072296 103.260284 7.797684 -26.417777 -1.172180 0.000000 -0.000002 -0.000000 -25.822842 10.334160 0.033037 56.124593 7.203400 0.904701 -27.500684 7.008793 1.234923 0.000001 0.000000 -0.000000 -0.000005 0.000001 -0.000000 -9.269537 -18.977995 -3.877012 31.414762 -6.511469 -6.214964 -16.671291 -29.802076 -8.194261 0.000000 0.000000 -0.000001 -0.000002 -0.000002 0.000003 8.049440 7.884443 -2.083073 4.027496 1.080313 -1.709096 4.161892 1.057835 -1.694767 3.074377 1.272894 -3.128218 3.074372 1.272899 -3.128221 0.000001 -0.000000 0.000000 3.074357 1.272901 -3.128216 3.074368 1.272893 -3.128219 -0.000001 0.000000 0.000001 0.000001 -0.000000 -0.000000 0.675776 0.579759 -4.007812 4.449990 4.364738 -65.954287 0.000010 -61.076057 -0.000005 12.370362 -2.163074 -6.452137 -1.077688 17.111519 8.790034 1.544660 2.723076 -0.789287 -0.000001 -0.000003 -0.000006 -0.044130 -10.002857 -1.137476 0.286163 1.968090 -16.543690 -0.000001 -0.000001 0.000001 -0.428135 -9.134854 -3.460947 0.383708 2.270596 -19.180944 -0.000005 -0.000000 0.000000 -0.821600 -8.506271 -6.126757 0.561714 2.728536 -23.260505 0.000001 -0.000001 0.000002 -0.572460 -4.318205 -7.576495 0.775939 -0.897895 -27.707631 0.000003 -0.000003 0.000002 -0.000002 -0.000001 0.000000 -0.000002 -0.000001 0.000000 -0.000003 -0.000000 0.000000 0.000000 -0.000001 -0.000001 0.000000 -0.000002 -0.000001 0.000000 -0.000001 -0.000001 0.000000 0.000000 -0.000001 -4.325215 13.224740 -11.730991 19.215989 29.939800 72.405702 -0.000054 77.599610 0.000074 14.380769 4.053336 13.069293 6.537485 -16.480034 -5.314529 20.728514 -3.312267 12.965530 0.000002 0.000002 0.000001 3.993186 -6.327766 56.792569 6.398018 -6.926520 85.447080 -0.000000 -0.000001 -0.000004 4.482761 -6.588016 59.528241 6.056637 -6.891050 82.609601 0.000005 -0.000001 -0.000002 5.201099 -6.940735 63.377175 5.517755 -6.800075 78.090755 0.000000 -0.000003 -0.000002 5.887337 -7.233928 66.905897 5.044537 -6.683564 74.061578 -0.000000 -0.000000 0.000003 -0.000002 0.000001 -0.000000 -0.000002 -0.000000 -0.000001 -0.000002 0.000001 -0.000000 0.000002 0.000001 -0.000001 0.000002 0.000002 -0.000000 0.000002 0.000001 -0.000001 0.000001 0.000002 0.000000 -0.000001 -0.000000 -0.000000 -0.000001 -0.000000 -0.000000 -0.000001 -0.000000 -0.000000 -0.000001 -0.000000 -0.000000 -0.000001 -0.000000 -0.000000 -0.000001 -0.000000 -0.000000 -0.000001 -0.000000 -0.000000 0.000000 0.000001 -0.000000 0.000000 -0.000002 -0.000000 
-0.461101 88.306633 105.708336 7.693937 -25.777243 -1.209300 -0.000001 0.000002 0.000000 -24.549920 11.042827 0.038569 55.808250 6.951348 0.567878 -25.614307 5.463213 1.500364 -0.000000 0.000000 -0.000000 0.000004 0.000001 -0.000001 -9.502281 -19.081551 -3.312126 32.098658 -5.767301 -5.943204 -18.238027 -29.396803 -7.842563 -0.000001 0.000001 -0.000001 0.000001 0.000003 -0.000001 7.767205 7.449870 -1.859296 3.505205 1.017665 -1.397782 3.639573 0.999432 -1.385230 2.933482 1.223415 -3.076352 2.933482 1.223408 -3.076352 0.000001 -0.000000 -0.000000 2.933444 1.223393 -3.076350 2.933509 1.223437 -3.076361 -0.000001 -0.000001 -0.000000 0.000001 -0.000000 -0.000000 0.597026 0.942338 -2.953336 5.021067 4.800135 -67.402171 0.000000 -61.637936 -0.000013 12.452582 -1.892351 -6.536481 -1.120795 17.140952 8.873591 1.544665 2.723075 -0.789283 -0.000003 0.000000 -0.000001 -0.069116 -9.850549 -1.346481 0.263357 1.889742 -15.866774 -0.000002 0.000004 0.000002 -0.459454 -8.824770 -3.772258 0.352808 2.179829 -18.385493 -0.000002 -0.000000 -0.000000 -0.843710 -7.991574 -6.574332 0.515586 2.618788 -22.271983 -0.000001 0.000001 -0.000001 -0.535428 -3.621384 -8.152630 0.709056 -1.028521 -26.492820 -0.000001 -0.000005 0.000005 0.000001 -0.000003 0.000001 0.000001 -0.000003 0.000001 0.000000 -0.000003 0.000001 0.000001 0.000001 -0.000000 0.000001 0.000001 -0.000001 0.000001 0.000001 -0.000000 0.000002 0.000002 -0.000000 -4.216418 12.675229 -11.180684 20.953627 28.153592 71.601153 -0.000002 78.863577 0.000015 13.588107 3.766797 12.901360 6.491580 -16.528790 -5.410262 20.728513 -3.312265 12.965528 0.000002 -0.000001 -0.000002 4.015441 -6.331643 56.904891 6.398019 -6.926515 85.447087 -0.000002 0.000002 -0.000001 4.477440 -6.578517 59.456838 6.056099 -6.890981 82.605114 0.000002 0.000003 0.000000 5.160289 -6.917666 63.080424 5.515616 -6.799622 78.072826 0.000002 -0.000003 -0.000002 5.813273 -7.202285 66.410872 5.044534 -6.683565 74.061578 0.000002 -0.000000 -0.000000 0.000001 0.000001 0.000000 0.000000 0.000001 0.000001 0.000001 0.000001 -0.000000 -0.000001 0.000000 0.000000 -0.000001 0.000001 0.000001 -0.000001 0.000000 0.000000 -0.000001 0.000001 0.000002 -0.000001 -0.000000 -0.000000 -0.000001 -0.000000 -0.000000 -0.000001 -0.000000 -0.000000 -0.000001 -0.000000 -0.000000 -0.000001 -0.000000 -0.000000 -0.000001 -0.000000 -0.000000 -0.000001 -0.000000 -0.000000 0.000000 -0.000001 -0.000000 -0.000001 0.000002 0.000000 
-0.547854 88.431847 108.182480 7.791251 -25.165152 -1.189821 -0.000000 0.000001 0.000000 -24.217829 11.254215 -0.012028 56.164792 6.960363 0.312815 -22.976401 4.038620 1.698410 0.000002 -0.000000 0.000000 0.000001 0.000000 -0.000000 -10.493702 -18.776470 -2.279626 33.292333 -5.384995 -5.832843 -20.073489 -28.400760 -8.974246 -0.000000 -0.000001 -0.000001 0.000000 0.000001 -0.000002 7.462420 6.854839 -1.499144 2.782650 0.937995 -1.175941 2.916989 0.923276 -1.165548 2.712982 1.174982 -2.916746 2.712957 1.174993 -2.916740 0.000001 -0.000001 0.000000 2.713042 1.174996 -2.916748 2.713017 1.175000 -2.916742 -0.000001 0.000000 0.000000 0.000001 -0.000001 0.000000 0.526817 0.820782 -1.998065 5.726157 5.578386 -68.307718 -0.000027 -61.874738 -0.000020 12.179003 -1.855163 -6.704894 -1.158863 17.318445 9.026533 1.544660 2.723078 -0.789285 0.000003 -0.000004 -0.000001 -0.154226 -9.061113 -1.755662 0.197674 1.641199 -13.734473 0.000000 -0.000002 0.000003 -0.499155 -7.852404 -4.189883 0.291968 1.987583 -16.712457 0.000000 -0.000001 0.000003 -0.814237 -6.759017 -7.021166 0.461049 2.481574 -21.046171 -0.000002 -0.000000 -0.000002 -0.399728 -2.136706 -8.651684 0.659589 -1.129830 -25.559454 -0.000004 -0.000003 0.000002 -0.000000 -0.000006 0.000001 -0.000000 -0.000006 0.000001 -0.000001 -0.000005 0.000002 0.000000 0.000001 -0.000001 0.000000 0.000000 -0.000000 0.000000 0.000001 -0.000001 0.000001 0.000001 -0.000001 -4.091983 11.208267 -9.953700 22.391841 28.075974 68.013576 0.000162 80.258432 -0.000177 11.981491 3.917501 12.495647 6.436194 -16.467490 -5.468585 20.728516 -3.312266 12.965529 0.000002 -0.000002 -0.000001 3.750669 -6.152219 56.912705 6.398017 -6.926515 85.447087 0.000003 0.000001 0.000001 4.271419 -6.458860 59.217563 6.054390 -6.890764 82.590921 0.000003 0.000002 -0.000002 5.020295 -6.859819 62.533845 5.511857 -6.798810 78.040970 0.000003 0.000001 0.000001 5.726036 -7.189023 65.590675 5.044529 -6.683570 74.061585 -0.000004 -0.000003 -0.000003 -0.000002 0.000002 0.000003 -0.000002 -0.000001 0.000002 -0.000002 0.000001 -0.000000 0.000003 -0.000003 -0.000001 0.000003 -0.000002 -0.000000 0.000003 -0.000003 -0.000001 0.000003 -0.000001 0.000001 0.000001 -0.000001 0.000000 0.000001 -0.000001 0.000000 0.000001 -0.000001 0.000000 0.000001 -0.000001 0.000000 0.000001 -0.000001 0.000000 0.000001 -0.000001 0.000000 0.000001 -0.000001 0.000000 -0.000001 -0.000000 0.000000 -0.000000 0.000001 0.000000 
